<svg width="16" height="16" viewBox="0 0 16 16" fill="none" xmlns="http://www.w3.org/2000/svg">
<path d="M5.70932 1.63C5.70932 1.41333 5.73132 1.28333 6.10265 1.28333H11.0793C11.946 1.28333 12.426 2.02333 12.7727 3.412L13.0527 4.52267H13.8993C14.0527 1.37067 14.186 0 14.186 0C14.186 0 12.0553 0.24 10.7927 0.24H4.42665L1.01732 0.130667V1.044L2.16732 1.26133C2.97399 1.42133 3.16732 1.592 3.23399 2.332C3.23399 2.332 3.30732 4.512 3.30732 8.092C3.30732 11.682 3.24732 13.832 3.24732 13.832C3.24732 14.4807 2.98732 14.7207 2.18732 14.8807L1.03932 15.1007V16L4.45932 15.89H10.1593C11.4493 15.89 14.4193 16 14.4193 16C14.4893 15.22 14.9193 11.68 14.9893 11.2907H14.1893L13.3333 13.2307C12.6633 14.7507 11.6827 14.8607 10.5933 14.8607H7.32265C6.23599 14.8607 5.71265 14.434 5.71265 13.494V8.53333C5.71265 8.53333 8.12599 8.53333 8.90598 8.59733C9.51398 8.64 9.88132 8.814 10.0793 9.66267L10.3393 10.7927H11.2793L11.2193 7.94067L11.3473 5.07067H10.42L10.12 6.33067C9.93132 7.16 9.79998 7.31067 8.95065 7.39733C7.83998 7.51067 5.74065 7.49067 5.74065 7.49067V1.63333H5.70732L5.70932 1.63Z" fill="#333333"/>
</svg>
